<svg width="95" height="96" viewBox="0 0 95 96" fill="none" xmlns="http://www.w3.org/2000/svg">
<g filter="url(#filter0_b_1_12592)">
<rect x="15.5" width="64" height="64" rx="32" fill="url(#paint0_linear_1_12592)"/>
<path d="M32 18.9998H36.8485L40.097 35.2301C40.2078 35.7881 40.5114 36.2894 40.9546 36.6462C41.3978 37.003 41.9524 37.1925 42.5212 37.1816H54.303C54.8719 37.1925 55.4265 37.003 55.8696 36.6462C56.3128 36.2894 56.6164 35.7881 56.7273 35.2301L58.6667 25.0604H38.0606M42.9091 43.2422C42.9091 43.9116 42.3664 44.4543 41.697 44.4543C41.0275 44.4543 40.4849 43.9116 40.4849 43.2422C40.4849 42.5728 41.0275 42.0301 41.697 42.0301C42.3664 42.0301 42.9091 42.5728 42.9091 43.2422ZM56.2424 43.2422C56.2424 43.9116 55.6997 44.4543 55.0303 44.4543C54.3609 44.4543 53.8182 43.9116 53.8182 43.2422C53.8182 42.5728 54.3609 42.0301 55.0303 42.0301C55.6997 42.0301 56.2424 42.5728 56.2424 43.2422Z" stroke="white" stroke-width="2.42424" stroke-linecap="round" stroke-linejoin="round"/>
<rect x="16" y="0.5" width="63" height="63" rx="31.5" stroke="url(#paint1_linear_1_12592)"/>
</g>
<path d="M1.27841 78.3636H3.40909L7.11364 87.4091H7.25L10.9545 78.3636H13.0852V90H11.4148V81.5795H11.3068L7.875 89.983H6.48864L3.05682 81.5739H2.94886V90H1.27841V78.3636ZM18.0412 90.1932C17.4882 90.1932 16.9882 90.0909 16.5412 89.8864C16.0942 89.678 15.7401 89.3769 15.4787 88.983C15.2211 88.589 15.0923 88.1061 15.0923 87.5341C15.0923 87.0417 15.187 86.6364 15.3764 86.3182C15.5658 86 15.8215 85.7481 16.1435 85.5625C16.4654 85.3769 16.8253 85.2367 17.223 85.142C17.6207 85.0473 18.026 84.9754 18.4389 84.9261C18.9616 84.8655 19.3859 84.8163 19.7116 84.7784C20.0374 84.7367 20.2741 84.6705 20.4219 84.5795C20.5696 84.4886 20.6435 84.3409 20.6435 84.1364V84.0966C20.6435 83.6004 20.5033 83.2159 20.223 82.9432C19.9465 82.6705 19.5336 82.5341 18.9844 82.5341C18.4124 82.5341 17.9616 82.661 17.6321 82.9148C17.3063 83.1648 17.081 83.4432 16.956 83.75L15.3594 83.3864C15.5488 82.8561 15.8253 82.428 16.1889 82.1023C16.5563 81.7727 16.9787 81.5341 17.456 81.3864C17.9332 81.2348 18.4351 81.1591 18.9616 81.1591C19.3101 81.1591 19.6795 81.2008 20.0696 81.2841C20.4635 81.3636 20.831 81.5114 21.1719 81.7273C21.5166 81.9432 21.7988 82.2519 22.0185 82.6534C22.2382 83.0511 22.348 83.5682 22.348 84.2045V90H20.6889V88.8068H20.6207C20.5109 89.0265 20.3461 89.2424 20.1264 89.4545C19.9067 89.6667 19.6245 89.8428 19.2798 89.983C18.9351 90.1231 18.5223 90.1932 18.0412 90.1932ZM18.4105 88.8295C18.8802 88.8295 19.2817 88.7367 19.6151 88.5511C19.9522 88.3655 20.2079 88.1231 20.3821 87.8239C20.5601 87.5208 20.6491 87.197 20.6491 86.8523V85.7273C20.5885 85.7879 20.4711 85.8447 20.2969 85.8977C20.1264 85.947 19.9313 85.9905 19.7116 86.0284C19.492 86.0625 19.2779 86.0947 19.0696 86.125C18.8613 86.1515 18.687 86.1742 18.5469 86.1932C18.2173 86.2348 17.9162 86.3049 17.6435 86.4034C17.3745 86.5019 17.1586 86.6439 16.9957 86.8295C16.8366 87.0114 16.7571 87.2538 16.7571 87.5568C16.7571 87.9773 16.9124 88.2955 17.223 88.5114C17.5336 88.7235 17.9295 88.8295 18.4105 88.8295ZM24.6108 90V81.2727H26.2528V82.6591H26.3438C26.5028 82.1894 26.7831 81.8201 27.1847 81.5511C27.59 81.2784 28.0483 81.142 28.5597 81.142C28.6657 81.142 28.7907 81.1458 28.9347 81.1534C29.0824 81.161 29.1979 81.1705 29.2812 81.1818V82.8068C29.2131 82.7879 29.0919 82.767 28.9176 82.7443C28.7434 82.7178 28.5691 82.7045 28.3949 82.7045C27.9934 82.7045 27.6354 82.7898 27.321 82.9602C27.0104 83.1269 26.7642 83.3598 26.5824 83.6591C26.4006 83.9545 26.3097 84.2917 26.3097 84.6705V90H24.6108ZM32.3139 87.0398L32.3026 84.9659H32.598L36.0753 81.2727H38.1094L34.1435 85.4773H33.8764L32.3139 87.0398ZM30.7514 90V78.3636H32.4503V90H30.7514ZM36.2628 90L33.1378 85.8523L34.3082 84.6648L38.348 90H36.2628ZM43.0597 90.1761C42.1998 90.1761 41.4593 89.9924 40.8381 89.625C40.2206 89.2538 39.7434 88.733 39.4062 88.0625C39.0729 87.3883 38.9062 86.5985 38.9062 85.6932C38.9062 84.7992 39.0729 84.0114 39.4062 83.3295C39.7434 82.6477 40.2131 82.1155 40.8153 81.733C41.4214 81.3504 42.1297 81.1591 42.9403 81.1591C43.4328 81.1591 43.91 81.2405 44.3722 81.4034C44.8343 81.5663 45.2491 81.822 45.6165 82.1705C45.9839 82.5189 46.2737 82.9716 46.4858 83.5284C46.6979 84.0814 46.804 84.7538 46.804 85.5455V86.1477H39.8665V84.875H45.1392C45.1392 84.428 45.0483 84.0322 44.8665 83.6875C44.6847 83.339 44.429 83.0644 44.0994 82.8636C43.7737 82.6629 43.3911 82.5625 42.9517 82.5625C42.4744 82.5625 42.0578 82.6799 41.7017 82.9148C41.3494 83.1458 41.0767 83.4489 40.8835 83.8239C40.6941 84.1951 40.5994 84.5985 40.5994 85.0341V86.0284C40.5994 86.6117 40.7017 87.108 40.9062 87.517C41.1146 87.9261 41.4044 88.2386 41.7756 88.4545C42.1468 88.6667 42.5805 88.7727 43.0767 88.7727C43.3987 88.7727 43.6922 88.7273 43.9574 88.6364C44.2225 88.5417 44.4517 88.4015 44.6449 88.2159C44.8381 88.0303 44.9858 87.8011 45.0881 87.5284L46.696 87.8182C46.5672 88.2917 46.3362 88.7064 46.0028 89.0625C45.6733 89.4148 45.2585 89.6894 44.7585 89.8864C44.2623 90.0795 43.696 90.1761 43.0597 90.1761ZM52.7628 81.2727V82.6364H47.9957V81.2727H52.7628ZM49.2741 79.1818H50.973V87.4375C50.973 87.767 51.0223 88.0152 51.1207 88.1818C51.2192 88.3447 51.3461 88.4564 51.5014 88.517C51.6605 88.5739 51.8329 88.6023 52.0185 88.6023C52.1548 88.6023 52.2741 88.5928 52.3764 88.5739C52.4787 88.5549 52.5582 88.5398 52.6151 88.5284L52.9219 89.9318C52.8234 89.9697 52.6832 90.0076 52.5014 90.0455C52.3196 90.0871 52.0923 90.1098 51.8196 90.1136C51.3726 90.1212 50.956 90.0417 50.5696 89.875C50.1832 89.7083 49.8707 89.4508 49.6321 89.1023C49.3935 88.7538 49.2741 88.3163 49.2741 87.7898V79.1818ZM54.642 93.2727V81.2727H56.3011V82.6875H56.4432C56.5417 82.5057 56.6837 82.2955 56.8693 82.0568C57.0549 81.8182 57.3125 81.6098 57.642 81.4318C57.9716 81.25 58.4072 81.1591 58.9489 81.1591C59.6534 81.1591 60.2822 81.3371 60.8352 81.6932C61.3883 82.0492 61.822 82.5625 62.1364 83.233C62.4545 83.9034 62.6136 84.7102 62.6136 85.6534C62.6136 86.5966 62.4564 87.4053 62.142 88.0795C61.8277 88.75 61.3958 89.267 60.8466 89.6307C60.2973 89.9905 59.6705 90.1705 58.9659 90.1705C58.4356 90.1705 58.0019 90.0814 57.6648 89.9034C57.3314 89.7254 57.0701 89.517 56.8807 89.2784C56.6913 89.0398 56.5455 88.8277 56.4432 88.642H56.3409V93.2727H54.642ZM56.3068 85.6364C56.3068 86.25 56.3958 86.7879 56.5739 87.25C56.7519 87.7121 57.0095 88.0739 57.3466 88.3352C57.6837 88.5928 58.0966 88.7216 58.5852 88.7216C59.0928 88.7216 59.517 88.5871 59.858 88.3182C60.1989 88.0455 60.4564 87.6761 60.6307 87.2102C60.8087 86.7443 60.8977 86.2197 60.8977 85.6364C60.8977 85.0606 60.8106 84.5436 60.6364 84.0852C60.4659 83.6269 60.2083 83.2652 59.8636 83C59.5227 82.7348 59.0966 82.6023 58.5852 82.6023C58.0928 82.6023 57.6761 82.7292 57.3352 82.983C56.9981 83.2367 56.7424 83.5909 56.5682 84.0455C56.3939 84.5 56.3068 85.0303 56.3068 85.6364ZM66.2159 78.3636V90H64.517V78.3636H66.2159ZM71.0412 90.1932C70.4882 90.1932 69.9882 90.0909 69.5412 89.8864C69.0942 89.678 68.7401 89.3769 68.4787 88.983C68.2211 88.589 68.0923 88.1061 68.0923 87.5341C68.0923 87.0417 68.187 86.6364 68.3764 86.3182C68.5658 86 68.8215 85.7481 69.1435 85.5625C69.4654 85.3769 69.8253 85.2367 70.223 85.142C70.6207 85.0473 71.026 84.9754 71.4389 84.9261C71.9616 84.8655 72.3859 84.8163 72.7116 84.7784C73.0374 84.7367 73.2741 84.6705 73.4219 84.5795C73.5696 84.4886 73.6435 84.3409 73.6435 84.1364V84.0966C73.6435 83.6004 73.5033 83.2159 73.223 82.9432C72.9465 82.6705 72.5336 82.5341 71.9844 82.5341C71.4124 82.5341 70.9616 82.661 70.6321 82.9148C70.3063 83.1648 70.081 83.4432 69.956 83.75L68.3594 83.3864C68.5488 82.8561 68.8253 82.428 69.1889 82.1023C69.5563 81.7727 69.9787 81.5341 70.456 81.3864C70.9332 81.2348 71.4351 81.1591 71.9616 81.1591C72.3101 81.1591 72.6795 81.2008 73.0696 81.2841C73.4635 81.3636 73.831 81.5114 74.1719 81.7273C74.5166 81.9432 74.7988 82.2519 75.0185 82.6534C75.2382 83.0511 75.348 83.5682 75.348 84.2045V90H73.6889V88.8068H73.6207C73.5109 89.0265 73.3461 89.2424 73.1264 89.4545C72.9067 89.6667 72.6245 89.8428 72.2798 89.983C71.9351 90.1231 71.5223 90.1932 71.0412 90.1932ZM71.4105 88.8295C71.8802 88.8295 72.2817 88.7367 72.6151 88.5511C72.9522 88.3655 73.2079 88.1231 73.3821 87.8239C73.5601 87.5208 73.6491 87.197 73.6491 86.8523V85.7273C73.5885 85.7879 73.4711 85.8447 73.2969 85.8977C73.1264 85.947 72.9313 85.9905 72.7116 86.0284C72.492 86.0625 72.2779 86.0947 72.0696 86.125C71.8613 86.1515 71.687 86.1742 71.5469 86.1932C71.2173 86.2348 70.9162 86.3049 70.6435 86.4034C70.3745 86.5019 70.1586 86.6439 69.9957 86.8295C69.8366 87.0114 69.7571 87.2538 69.7571 87.5568C69.7571 87.9773 69.9124 88.2955 70.223 88.5114C70.5336 88.7235 70.9295 88.8295 71.4105 88.8295ZM81.2869 90.1761C80.4422 90.1761 79.715 89.9848 79.1051 89.6023C78.4991 89.2159 78.0331 88.6837 77.7074 88.0057C77.3816 87.3277 77.2188 86.5511 77.2188 85.6761C77.2188 84.7898 77.3854 84.0076 77.7188 83.3295C78.0521 82.6477 78.5218 82.1155 79.1278 81.733C79.7339 81.3504 80.4479 81.1591 81.2699 81.1591C81.9328 81.1591 82.5237 81.2822 83.0426 81.5284C83.5616 81.7708 83.9801 82.1117 84.2983 82.5511C84.6203 82.9905 84.8116 83.5038 84.8722 84.0909H83.2188C83.1278 83.6818 82.9195 83.3295 82.5938 83.0341C82.2718 82.7386 81.84 82.5909 81.2983 82.5909C80.8248 82.5909 80.41 82.7159 80.054 82.9659C79.7017 83.2121 79.4271 83.5644 79.2301 84.0227C79.0331 84.4773 78.9347 85.0152 78.9347 85.6364C78.9347 86.2727 79.0313 86.822 79.2244 87.2841C79.4176 87.7462 79.6903 88.1042 80.0426 88.358C80.3987 88.6117 80.8172 88.7386 81.2983 88.7386C81.6203 88.7386 81.9119 88.6799 82.1733 88.5625C82.4384 88.4413 82.66 88.2689 82.8381 88.0455C83.0199 87.822 83.1468 87.553 83.2188 87.2386H84.8722C84.8116 87.803 84.6278 88.3068 84.321 88.75C84.0142 89.1932 83.6032 89.5417 83.0881 89.7955C82.5767 90.0492 81.9763 90.1761 81.2869 90.1761ZM90.4503 90.1761C89.5904 90.1761 88.8499 89.9924 88.2287 89.625C87.6113 89.2538 87.134 88.733 86.7969 88.0625C86.4635 87.3883 86.2969 86.5985 86.2969 85.6932C86.2969 84.7992 86.4635 84.0114 86.7969 83.3295C87.134 82.6477 87.6037 82.1155 88.206 81.733C88.812 81.3504 89.5204 81.1591 90.331 81.1591C90.8234 81.1591 91.3007 81.2405 91.7628 81.4034C92.2249 81.5663 92.6397 81.822 93.0071 82.1705C93.3745 82.5189 93.6643 82.9716 93.8764 83.5284C94.0885 84.0814 94.1946 84.7538 94.1946 85.5455V86.1477H87.2571V84.875H92.5298C92.5298 84.428 92.4389 84.0322 92.2571 83.6875C92.0753 83.339 91.8196 83.0644 91.4901 82.8636C91.1643 82.6629 90.7817 82.5625 90.3423 82.5625C89.8651 82.5625 89.4484 82.6799 89.0923 82.9148C88.7401 83.1458 88.4673 83.4489 88.2741 83.8239C88.0848 84.1951 87.9901 84.5985 87.9901 85.0341V86.0284C87.9901 86.6117 88.0923 87.108 88.2969 87.517C88.5052 87.9261 88.795 88.2386 89.1662 88.4545C89.5374 88.6667 89.9711 88.7727 90.4673 88.7727C90.7893 88.7727 91.0829 88.7273 91.348 88.6364C91.6132 88.5417 91.8423 88.4015 92.0355 88.2159C92.2287 88.0303 92.3764 87.8011 92.4787 87.5284L94.0866 87.8182C93.9579 88.2917 93.7268 88.7064 93.3935 89.0625C93.0639 89.4148 92.6491 89.6894 92.1491 89.8864C91.6529 90.0795 91.0866 90.1761 90.4503 90.1761Z" fill="#FCFCFD"/>
<defs>
<filter id="filter0_b_1_12592" x="-60.6462" y="-76.1462" width="216.292" height="216.292" filterUnits="userSpaceOnUse" color-interpolation-filters="sRGB">
<feFlood flood-opacity="0" result="BackgroundImageFix"/>
<feGaussianBlur in="BackgroundImageFix" stdDeviation="38.0731"/>
<feComposite in2="SourceAlpha" operator="in" result="effect1_backgroundBlur_1_12592"/>
<feBlend mode="normal" in="SourceGraphic" in2="effect1_backgroundBlur_1_12592" result="shape"/>
</filter>
<linearGradient id="paint0_linear_1_12592" x1="25.4429" y1="0.914284" x2="91.1991" y2="32.9203" gradientUnits="userSpaceOnUse">
<stop stop-color="#EFEFEF" stop-opacity="0.6"/>
<stop offset="1" stop-color="white" stop-opacity="0.08"/>
</linearGradient>
<linearGradient id="paint1_linear_1_12592" x1="18.7" y1="5.21143" x2="86.7048" y2="30.5432" gradientUnits="userSpaceOnUse">
<stop stop-color="white" stop-opacity="0.6"/>
<stop offset="1" stop-color="white" stop-opacity="0.1"/>
</linearGradient>
</defs>
</svg>
