<svg width="187" height="52" viewBox="0 0 187 52" fill="none" xmlns="http://www.w3.org/2000/svg">
<ellipse cx="14.5652" cy="20.9579" rx="14.5652" ry="14.6616" fill="#B6BCC4"/>
<ellipse cx="14.5652" cy="30.2179" rx="14.5652" ry="14.6616" fill="#004AAD"/>
<path d="M39.2518 25.1675C39.2518 23.5089 39.6106 22.0338 40.3283 20.742C41.0459 19.4343 42.0427 18.4216 43.3185 17.7039C44.6103 16.9703 46.0695 16.6035 47.6961 16.6035C49.6896 16.6035 51.396 17.1298 52.8154 18.1824C54.2347 19.2349 55.1836 20.6702 55.662 22.4883H51.1648C50.8299 21.7866 50.3514 21.2523 49.7295 20.8855C49.1235 20.5187 48.4297 20.3353 47.6483 20.3353C46.3884 20.3353 45.3678 20.7739 44.5863 21.651C43.8049 22.5281 43.4142 23.7003 43.4142 25.1675C43.4142 26.6347 43.8049 27.8068 44.5863 28.684C45.3678 29.5611 46.3884 29.9997 47.6483 29.9997C48.4297 29.9997 49.1235 29.8163 49.7295 29.4495C50.3514 29.0827 50.8299 28.5484 51.1648 27.8467H55.662C55.1836 29.6648 54.2347 31.1 52.8154 32.1526C51.396 33.1892 49.6896 33.7075 47.6961 33.7075C46.0695 33.7075 44.6103 33.3487 43.3185 32.631C42.0427 31.8974 41.0459 30.8848 40.3283 29.593C39.6106 28.3012 39.2518 26.8261 39.2518 25.1675ZM64.004 33.7793C62.6962 33.7793 61.5161 33.5002 60.4636 32.942C59.427 32.3838 58.6057 31.5865 57.9996 30.5499C57.4096 29.5132 57.1145 28.3012 57.1145 26.9138C57.1145 25.5423 57.4175 24.3382 58.0236 23.3016C58.6296 22.2491 59.4589 21.4437 60.5114 20.8855C61.564 20.3273 62.7441 20.0483 64.0518 20.0483C65.3595 20.0483 66.5397 20.3273 67.5922 20.8855C68.6448 21.4437 69.474 22.2491 70.0801 23.3016C70.6861 24.3382 70.9891 25.5423 70.9891 26.9138C70.9891 28.2853 70.6781 29.4973 70.0561 30.5499C69.4501 31.5865 68.6129 32.3838 67.5444 32.942C66.4918 33.5002 65.3117 33.7793 64.004 33.7793ZM64.004 30.2389C64.7854 30.2389 65.4472 29.9518 65.9895 29.3777C66.5476 28.8036 66.8267 27.9823 66.8267 26.9138C66.8267 25.8453 66.5556 25.024 66.0134 24.4498C65.4871 23.8757 64.8332 23.5887 64.0518 23.5887C63.2544 23.5887 62.5926 23.8757 62.0663 24.4498C61.54 25.008 61.2769 25.8293 61.2769 26.9138C61.2769 27.9823 61.5321 28.8036 62.0424 29.3777C62.5687 29.9518 63.2225 30.2389 64.004 30.2389ZM81.0534 20.0961C82.6162 20.0961 83.8602 20.6064 84.7851 21.6271C85.726 22.6318 86.1965 24.0193 86.1965 25.7895V33.5879H82.1298V26.3396C82.1298 25.4466 81.8986 24.7528 81.4361 24.2585C80.9736 23.7641 80.3516 23.5169 79.5702 23.5169C78.7888 23.5169 78.1668 23.7641 77.7043 24.2585C77.2418 24.7528 77.0106 25.4466 77.0106 26.3396V33.5879H72.92V20.2396H77.0106V22.0098C77.4252 21.4198 77.9834 20.9573 78.6851 20.6224C79.3868 20.2715 80.1762 20.0961 81.0534 20.0961ZM96.9332 20.0961C98.4961 20.0961 99.74 20.6064 100.665 21.6271C101.606 22.6318 102.076 24.0193 102.076 25.7895V33.5879H98.0097V26.3396C98.0097 25.4466 97.7784 24.7528 97.3159 24.2585C96.8535 23.7641 96.2315 23.5169 95.4501 23.5169C94.6686 23.5169 94.0467 23.7641 93.5842 24.2585C93.1217 24.7528 92.8904 25.4466 92.8904 26.3396V33.5879H88.7998V20.2396H92.8904V22.0098C93.3051 21.4198 93.8633 20.9573 94.565 20.6224C95.2667 20.2715 96.0561 20.0961 96.9332 20.0961ZM117.262 26.6985C117.262 27.0812 117.239 27.4799 117.191 27.8946H107.933C107.997 28.7238 108.26 29.3617 108.722 29.8083C109.201 30.2389 109.783 30.4542 110.469 30.4542C111.489 30.4542 112.199 30.0236 112.598 29.1624H116.951C116.728 30.0395 116.322 30.8289 115.731 31.5306C115.157 32.2323 114.432 32.7825 113.555 33.1812C112.677 33.5799 111.697 33.7793 110.612 33.7793C109.305 33.7793 108.14 33.5002 107.12 32.942C106.099 32.3838 105.302 31.5865 104.728 30.5499C104.153 29.5132 103.866 28.3012 103.866 26.9138C103.866 25.5263 104.145 24.3143 104.704 23.2777C105.278 22.2411 106.075 21.4437 107.096 20.8855C108.116 20.3273 109.289 20.0483 110.612 20.0483C111.904 20.0483 113.052 20.3194 114.057 20.8616C115.062 21.4038 115.843 22.1773 116.401 23.182C116.975 24.1867 117.262 25.3589 117.262 26.6985ZM113.076 25.622C113.076 24.9203 112.837 24.3621 112.359 23.9475C111.88 23.5328 111.282 23.3255 110.564 23.3255C109.879 23.3255 109.297 23.5249 108.818 23.9236C108.356 24.3223 108.069 24.8884 107.957 25.622H113.076ZM118.368 26.9138C118.368 25.5263 118.647 24.3143 119.205 23.2777C119.779 22.2411 120.569 21.4437 121.573 20.8855C122.594 20.3273 123.758 20.0483 125.066 20.0483C126.74 20.0483 128.136 20.4868 129.252 21.3639C130.385 22.2411 131.126 23.477 131.477 25.0718H127.123C126.756 24.0511 126.047 23.5408 124.994 23.5408C124.245 23.5408 123.647 23.8359 123.2 24.4259C122.754 25 122.53 25.8293 122.53 26.9138C122.53 27.9982 122.754 28.8355 123.2 29.4255C123.647 29.9997 124.245 30.2867 124.994 30.2867C126.047 30.2867 126.756 29.7764 127.123 28.7557H131.477C131.126 30.3186 130.385 31.5466 129.252 32.4397C128.12 33.3327 126.725 33.7793 125.066 33.7793C123.758 33.7793 122.594 33.5002 121.573 32.942C120.569 32.3838 119.779 31.5865 119.205 30.5499C118.647 29.5132 118.368 28.3012 118.368 26.9138ZM140.865 30.1193V33.5879H138.784C137.301 33.5879 136.145 33.2291 135.316 32.5114C134.486 31.7778 134.072 30.5897 134.072 28.9471V23.6365H132.445V20.2396H134.072V16.9863H138.162V20.2396H140.842V23.6365H138.162V28.9949C138.162 29.3936 138.258 29.6807 138.449 29.8561C138.641 30.0316 138.96 30.1193 139.406 30.1193H140.865Z" fill="black"/>
<path d="M151.579 15.8859V33.5879H149.402V15.8859H151.579ZM156.174 18.3498C155.759 18.3498 155.408 18.2063 155.121 17.9192C154.834 17.6322 154.691 17.2813 154.691 16.8667C154.691 16.452 154.834 16.1012 155.121 15.8141C155.408 15.5271 155.759 15.3835 156.174 15.3835C156.573 15.3835 156.908 15.5271 157.179 15.8141C157.466 16.1012 157.609 16.452 157.609 16.8667C157.609 17.2813 157.466 17.6322 157.179 17.9192C156.908 18.2063 156.573 18.3498 156.174 18.3498ZM157.227 20.4788V33.5879H155.05V20.4788H157.227ZM167.084 20.2396C168.679 20.2396 169.971 20.726 170.96 21.6989C171.949 22.6557 172.443 24.0432 172.443 25.8612V33.5879H170.29V26.1722C170.29 24.8645 169.963 23.8677 169.309 23.182C168.655 22.4803 167.762 22.1294 166.63 22.1294C165.482 22.1294 164.565 22.4883 163.879 23.2059C163.209 23.9236 162.874 24.9681 162.874 26.3396V33.5879H160.697V20.4788H162.874V22.3447C163.305 21.6749 163.887 21.1566 164.621 20.7898C165.37 20.423 166.191 20.2396 167.084 20.2396ZM183.08 33.5879L177.936 27.7989V33.5879H175.76V15.8859H177.936V26.2918L182.984 20.4788H186.022L179.85 27.0095L186.046 33.5879H183.08Z" fill="#B6BCC4"/>
</svg>
